<mxfile host="app.diagrams.net" agent="Mozilla/5.0 (Windows NT 10.0; Win64; x64) AppleWebKit/537.36 (KHTML, like Gecko) Chrome/127.0.0.0 Safari/537.36" version="24.7.6" pages="4">
  <diagram name="CommonsBeanutils1" id="c4acf3e9-155e-7222-9cf6-157b1a14988f">
    <mxGraphModel dx="1050" dy="522" grid="1" gridSize="10" guides="1" tooltips="1" connect="1" arrows="1" fold="1" page="1" pageScale="1" pageWidth="850" pageHeight="1100" background="none" math="0" shadow="0">
      <root>
        <mxCell id="0" />
        <mxCell id="1" parent="0" />
        <mxCell id="17acba5748e5396b-1" value="frame" style="shape=umlFrame;whiteSpace=wrap;html=1;rounded=0;shadow=0;comic=0;labelBackgroundColor=none;strokeWidth=1;fontFamily=Verdana;fontSize=10;align=center;" parent="1" vertex="1">
          <mxGeometry x="20" y="10" width="820" height="670" as="geometry" />
        </mxCell>
        <mxCell id="_2UcLu2fhHH_CYzqvIDp-26" value="&lt;p style=&quot;margin: 4px 0px 0px; text-align: center; line-height: 200%;&quot;&gt;&lt;b&gt;org.apache.xalan.xsltc.trax.TemplatesImpl&lt;/b&gt;&lt;br&gt;&lt;/p&gt;&lt;hr size=&quot;1&quot; style=&quot;border-style: solid; line-height: 200%;&quot;&gt;&lt;p style=&quot;margin: 0px 0px 0px 4px; line-height: 200%;&quot;&gt;+ _bytecodes[0][]&lt;span style=&quot;background-color: initial;&quot;&gt;: class&lt;/span&gt;&lt;span style=&quot;background-color: initial;&quot;&gt;【静态代码包含命令执行函数】&lt;/span&gt;&lt;/p&gt;&lt;p style=&quot;margin: 0px 0px 0px 4px; line-height: 200%;&quot;&gt;+ _bytecodes[1][]&lt;span style=&quot;background-color: initial;&quot;&gt;:&lt;/span&gt;&lt;span style=&quot;background-color: initial;&quot;&gt;&amp;nbsp;&lt;/span&gt;&lt;span style=&quot;background-color: initial;&quot;&gt;Foo类&lt;/span&gt;&lt;/p&gt;&lt;p style=&quot;margin: 0px 0px 0px 4px; line-height: 200%;&quot;&gt;+ _name&lt;span style=&quot;background-color: initial;&quot;&gt;:&lt;/span&gt;&lt;span style=&quot;background-color: initial;&quot;&gt;&amp;nbsp;&lt;/span&gt;&lt;span style=&quot;background-color: initial;&quot;&gt;&quot;Pwnr&quot;&lt;/span&gt;&lt;/p&gt;&lt;p style=&quot;margin: 0px 0px 0px 4px; line-height: 200%;&quot;&gt;+ _tfactory&lt;span style=&quot;background-color: initial;&quot;&gt;:&lt;/span&gt;&lt;span style=&quot;background-color: initial;&quot;&gt;&amp;nbsp;&lt;/span&gt;&lt;span style=&quot;background-color: initial;&quot;&gt;TransformerFactoryImpl&lt;/span&gt;&lt;span style=&quot;background-color: initial;&quot;&gt;类&lt;/span&gt;&lt;/p&gt;&lt;p style=&quot;margin: 0px 0px 0px 4px; line-height: 200%;&quot;&gt;&lt;span style=&quot;background-color: initial;&quot;&gt;+&amp;nbsp;&lt;/span&gt;&lt;span style=&quot;background-color: initial;&quot;&gt;_transletIndex: 0&lt;/span&gt;&lt;/p&gt;&lt;p style=&quot;margin: 0px 0px 0px 4px; line-height: 200%;&quot;&gt;+&amp;nbsp;_class[i]: loader.defineClass(_bytecodes[i])&lt;span style=&quot;background-color: initial;&quot;&gt;&lt;br&gt;&lt;/span&gt;&lt;/p&gt;&lt;hr size=&quot;1&quot; style=&quot;border-style: solid; line-height: 200%;&quot;&gt;&lt;p style=&quot;margin: 0px 0px 0px 4px; line-height: 200%;&quot;&gt;+ getOutputProperties()&lt;/p&gt;&lt;p style=&quot;margin: 0px 0px 0px 4px; line-height: 200%;&quot;&gt;+ newTransformer()&lt;br&gt;&lt;/p&gt;&lt;p style=&quot;margin: 0px 0px 0px 4px; line-height: 200%;&quot;&gt;+ getTransletInstance()&lt;br&gt;&lt;/p&gt;&lt;p style=&quot;margin: 0px 0px 0px 4px; line-height: 200%;&quot;&gt;+&amp;nbsp;defineTransletClasses():&amp;nbsp;&lt;span style=&quot;background-color: initial;&quot;&gt;_class[i]&lt;/span&gt;&lt;/p&gt;&lt;p style=&quot;margin: 0px 0px 0px 4px; line-height: 200%;&quot;&gt;+ _class[_transletIndex].newInstance()&lt;br&gt;&lt;/p&gt;" style="verticalAlign=top;align=left;overflow=fill;html=1;whiteSpace=wrap;rounded=0;shadow=0;comic=0;strokeColor=default;strokeWidth=1;fontFamily=Verdana;fontSize=10;fontColor=default;labelBackgroundColor=none;fillColor=default;" parent="1" vertex="1">
          <mxGeometry x="60" y="240" width="280" height="270" as="geometry" />
        </mxCell>
        <mxCell id="_2UcLu2fhHH_CYzqvIDp-29" value="&lt;p style=&quot;margin: 4px 0px 0px; text-align: center; line-height: 200%;&quot;&gt;&lt;span style=&quot;background-color: initial; text-align: left;&quot;&gt;&lt;b&gt;org.apache.commons.beanutils.BeanComparator&lt;/b&gt;&lt;/span&gt;&lt;br&gt;&lt;/p&gt;&lt;hr size=&quot;1&quot; style=&quot;border-style: solid; line-height: 200%;&quot;&gt;&lt;p style=&quot;margin: 0px 0px 0px 4px; line-height: 200%;&quot;&gt;+ property&lt;span style=&quot;background-color: initial;&quot;&gt;:&lt;/span&gt;&lt;span style=&quot;background-color: initial;&quot;&gt;&amp;nbsp;&lt;/span&gt;&lt;span style=&quot;background-color: initial;&quot;&gt;&quot;outputProperties&quot;&lt;/span&gt;&lt;/p&gt;&lt;p style=&quot;margin: 0px 0px 0px 4px; line-height: 200%;&quot;&gt;+ comparator&lt;span style=&quot;background-color: initial;&quot;&gt;:&lt;/span&gt;&lt;span style=&quot;background-color: initial;&quot;&gt;&amp;nbsp;&lt;/span&gt;&lt;span style=&quot;background-color: initial;&quot;&gt;ComparableComparator&lt;/span&gt;&lt;span style=&quot;background-color: initial;&quot;&gt;类&lt;/span&gt;&lt;/p&gt;&lt;hr size=&quot;1&quot; style=&quot;border-style: solid; line-height: 200%;&quot;&gt;&lt;p style=&quot;margin: 0px 0px 0px 4px; line-height: 200%;&quot;&gt;+ compare(TemplatesImpl, TemplatesImpl)&lt;/p&gt;&lt;p style=&quot;margin: 0px 0px 0px 4px; line-height: 200%;&quot;&gt;+&amp;nbsp;PropertyUtils.getProperty(TemplatesImpl, &quot;outputProperties&quot;)&lt;/p&gt;" style="verticalAlign=top;align=left;overflow=fill;html=1;whiteSpace=wrap;rounded=0;shadow=0;comic=0;strokeColor=default;strokeWidth=1;fontFamily=Verdana;fontSize=10;fontColor=default;labelBackgroundColor=none;fillColor=default;" parent="1" vertex="1">
          <mxGeometry x="500" y="60" width="330" height="130" as="geometry" />
        </mxCell>
        <mxCell id="_2UcLu2fhHH_CYzqvIDp-69" value="&lt;p style=&quot;margin: 4px 0px 0px; text-align: center; line-height: 200%;&quot;&gt;&lt;b style=&quot;text-align: left;&quot;&gt;org.apache.commons.beanutils.&lt;/b&gt;&lt;span style=&quot;background-color: initial; text-align: left;&quot;&gt;&lt;b&gt;PropertyUtilsBean&lt;/b&gt;&lt;/span&gt;&lt;br&gt;&lt;/p&gt;&lt;hr size=&quot;1&quot; style=&quot;border-style: solid; line-height: 200%;&quot;&gt;&lt;div style=&quot;height: 2px; line-height: 200%;&quot;&gt;&lt;p style=&quot;margin: 0px 0px 0px 4px; line-height: 200%;&quot;&gt;+&amp;nbsp;PropertyUtils.getProperty(TemplatesImpl, &quot;outputProperties&quot;)&lt;br&gt;&lt;/p&gt;&lt;p style=&quot;margin: 0px 0px 0px 4px; line-height: 200%;&quot;&gt;+&amp;nbsp;&lt;span style=&quot;background-color: initial;&quot;&gt;PropertyUtilsBean.invokeMethod((mehtod)getOutputProperties, TemplatesImpl)&lt;/span&gt;&lt;/p&gt;&lt;/div&gt;" style="verticalAlign=top;align=left;overflow=fill;html=1;whiteSpace=wrap;rounded=0;shadow=0;comic=0;strokeColor=default;strokeWidth=1;fontFamily=Verdana;fontSize=10;fontColor=default;labelBackgroundColor=none;fillColor=default;" parent="1" vertex="1">
          <mxGeometry x="410" y="240" width="420" height="80" as="geometry" />
        </mxCell>
        <mxCell id="_2UcLu2fhHH_CYzqvIDp-70" value="&lt;p style=&quot;margin: 4px 0px 0px; text-align: center; line-height: 200%;&quot;&gt;&lt;b style=&quot;text-align: left;&quot;&gt;java.util.PriorityQueue&lt;/b&gt;&lt;br&gt;&lt;/p&gt;&lt;hr size=&quot;1&quot; style=&quot;border-style: solid; line-height: 200%;&quot;&gt;&lt;p style=&quot;margin: 0px 0px 0px 4px; line-height: 200%;&quot;&gt;+ queueArray[0]&lt;span style=&quot;background-color: initial;&quot;&gt;:&lt;/span&gt;&lt;span style=&quot;background-color: initial;&quot;&gt;&amp;nbsp;&lt;/span&gt;&lt;span style=&quot;background-color: initial;&quot;&gt;TemplatesImpl&lt;/span&gt;&lt;/p&gt;&lt;p style=&quot;margin: 0px 0px 0px 4px; line-height: 200%;&quot;&gt;+ queueArray[1]&lt;span style=&quot;background-color: initial;&quot;&gt;:&lt;/span&gt;&lt;span style=&quot;background-color: initial;&quot;&gt;&amp;nbsp;&lt;/span&gt;&lt;span style=&quot;background-color: initial;&quot;&gt;TemplatesImpl&lt;/span&gt;&lt;/p&gt;&lt;p style=&quot;margin: 0px 0px 0px 4px; line-height: 200%;&quot;&gt;&lt;span style=&quot;background-color: initial;&quot;&gt;+&amp;nbsp;&lt;/span&gt;&lt;span style=&quot;background-color: initial;&quot;&gt;comparator:&amp;nbsp;&lt;/span&gt;&lt;span style=&quot;background-color: initial;&quot;&gt;BeanComparator【比较器类】&lt;/span&gt;&lt;/p&gt;&lt;hr size=&quot;1&quot; style=&quot;border-style: solid; line-height: 200%;&quot;&gt;&lt;p style=&quot;margin: 0px 0px 0px 4px; line-height: 200%;&quot;&gt;+ readObject()&lt;/p&gt;&lt;p style=&quot;margin: 0px 0px 0px 4px; line-height: 200%;&quot;&gt;+&amp;nbsp;comparator.compare(TemplatesImpl, TemplatesImpl)&lt;/p&gt;" style="verticalAlign=top;align=left;overflow=fill;html=1;whiteSpace=wrap;rounded=0;shadow=0;comic=0;strokeColor=default;strokeWidth=1;fontFamily=Verdana;fontSize=10;fontColor=default;labelBackgroundColor=none;fillColor=default;" parent="1" vertex="1">
          <mxGeometry x="60" y="60" width="290" height="150" as="geometry" />
        </mxCell>
        <mxCell id="_2UcLu2fhHH_CYzqvIDp-83" value="&lt;p style=&quot;text-align: center; margin: 4px 0px 0px; line-height: 200%;&quot;&gt;&lt;b&gt;java.lang.Runtime&lt;/b&gt;&lt;br&gt;&lt;/p&gt;&lt;hr size=&quot;1&quot; style=&quot;border-style: solid; line-height: 200%;&quot;&gt;&lt;div style=&quot;height: 2px; line-height: 200%;&quot;&gt;&lt;p style=&quot;margin: 0px 0px 0px 4px; line-height: 200%;&quot;&gt;+ exec(String command)&lt;br&gt;&lt;/p&gt;&lt;/div&gt;" style="verticalAlign=top;align=left;overflow=fill;html=1;whiteSpace=wrap;rounded=0;shadow=0;comic=0;strokeColor=default;strokeWidth=1;fontFamily=Verdana;fontSize=10;fontColor=default;labelBackgroundColor=none;fillColor=default;" parent="1" vertex="1">
          <mxGeometry x="60" y="540" width="280" height="60" as="geometry" />
        </mxCell>
        <mxCell id="_2UcLu2fhHH_CYzqvIDp-86" value="" style="html=1;verticalAlign=bottom;endArrow=open;dashed=1;endSize=8;rounded=0;fontFamily=Verdana;fontSize=10;fontColor=default;labelBackgroundColor=none;edgeStyle=orthogonalEdgeStyle;elbow=vertical;curved=1;" parent="1" target="_2UcLu2fhHH_CYzqvIDp-26" edge="1">
          <mxGeometry relative="1" as="geometry">
            <mxPoint x="120" y="480" as="sourcePoint" />
            <mxPoint x="40" y="480" as="targetPoint" />
            <Array as="points">
              <mxPoint x="121" y="480" />
              <mxPoint x="121" y="470" />
              <mxPoint x="60" y="470" />
              <mxPoint x="60" y="380" />
            </Array>
          </mxGeometry>
        </mxCell>
        <mxCell id="_2UcLu2fhHH_CYzqvIDp-87" value="反序列化开始" style="label;fontStyle=0;strokeColor=none;fillColor=none;align=left;verticalAlign=top;overflow=hidden;spacingLeft=28;spacingRight=4;rotatable=0;points=[[0,0.5],[1,0.5]];portConstraint=eastwest;imageWidth=16;imageHeight=16;whiteSpace=wrap;html=1;image=img/clipart/Gear_128x128.png;rounded=0;shadow=0;comic=0;strokeWidth=1;fontFamily=Verdana;fontSize=10;fontColor=default;labelBackgroundColor=none;" parent="1" vertex="1">
          <mxGeometry x="140" y="164" width="120" height="26" as="geometry" />
        </mxCell>
        <mxCell id="Dtk9I-x4W6v0APe1FHIE-1" value="" style="endArrow=open;endSize=12;dashed=1;html=1;rounded=0;fontFamily=Verdana;fontSize=10;fontColor=default;labelBackgroundColor=none;exitX=0.002;exitY=0.366;exitDx=0;exitDy=0;entryX=0.5;entryY=0;entryDx=0;entryDy=0;edgeStyle=orthogonalEdgeStyle;curved=1;exitPerimeter=0;" edge="1" parent="1" source="_2UcLu2fhHH_CYzqvIDp-70" target="_2UcLu2fhHH_CYzqvIDp-26">
          <mxGeometry width="160" relative="1" as="geometry">
            <mxPoint x="106" y="240" as="sourcePoint" />
            <mxPoint x="-30" y="383" as="targetPoint" />
            <Array as="points">
              <mxPoint x="30" y="115" />
              <mxPoint x="30" y="230" />
              <mxPoint x="200" y="230" />
            </Array>
          </mxGeometry>
        </mxCell>
        <mxCell id="Dtk9I-x4W6v0APe1FHIE-2" value="命令执行结束" style="label;fontStyle=0;strokeColor=none;fillColor=none;align=left;verticalAlign=top;overflow=hidden;spacingLeft=28;spacingRight=4;rotatable=0;points=[[0,0.5],[1,0.5]];portConstraint=eastwest;imageWidth=16;imageHeight=16;whiteSpace=wrap;html=1;image=img/clipart/Gear_128x128.png;rounded=0;shadow=0;comic=0;strokeWidth=1;fontFamily=Verdana;fontSize=10;fontColor=default;labelBackgroundColor=none;" vertex="1" parent="1">
          <mxGeometry x="190" y="574" width="120" height="26" as="geometry" />
        </mxCell>
        <mxCell id="Dtk9I-x4W6v0APe1FHIE-3" value="&lt;p style=&quot;line-height: 200%;&quot;&gt;原理：在对PriorityQueue队列里的值，使用comparator进行比较排序时，会根据comparator比较器property值调用队列里对象的函数，此时会使用_bytecodes的byte数组构造对象，触发命令执行。&lt;/p&gt;" style="text;html=1;align=left;verticalAlign=middle;whiteSpace=wrap;rounded=0;" vertex="1" parent="1">
          <mxGeometry x="425" y="430" width="387.5" height="100" as="geometry" />
        </mxCell>
        <mxCell id="Dtk9I-x4W6v0APe1FHIE-5" value="" style="endArrow=open;endSize=12;dashed=1;html=1;rounded=0;exitX=1.003;exitY=0.568;exitDx=0;exitDy=0;exitPerimeter=0;edgeStyle=orthogonalEdgeStyle;curved=1;entryX=0.5;entryY=0;entryDx=0;entryDy=0;" edge="1" parent="1" source="_2UcLu2fhHH_CYzqvIDp-70" target="_2UcLu2fhHH_CYzqvIDp-29">
          <mxGeometry width="160" relative="1" as="geometry">
            <mxPoint x="360" y="40" as="sourcePoint" />
            <mxPoint x="520" y="40" as="targetPoint" />
            <Array as="points">
              <mxPoint x="380" y="145" />
              <mxPoint x="380" y="30" />
              <mxPoint x="665" y="30" />
            </Array>
          </mxGeometry>
        </mxCell>
        <mxCell id="flgQhAuS-rdBXl0usiVo-5" value="" style="endArrow=block;endFill=1;html=1;edgeStyle=orthogonalEdgeStyle;align=left;verticalAlign=top;rounded=0;exitX=1.01;exitY=0.883;exitDx=0;exitDy=0;exitPerimeter=0;entryX=0;entryY=0.75;entryDx=0;entryDy=0;" edge="1" parent="1" source="_2UcLu2fhHH_CYzqvIDp-70" target="_2UcLu2fhHH_CYzqvIDp-29">
          <mxGeometry x="-1" relative="1" as="geometry">
            <mxPoint x="367.5" y="209" as="sourcePoint" />
            <mxPoint x="460" y="209" as="targetPoint" />
          </mxGeometry>
        </mxCell>
        <mxCell id="flgQhAuS-rdBXl0usiVo-6" value="1" style="edgeLabel;resizable=0;html=1;align=left;verticalAlign=bottom;" connectable="0" vertex="1" parent="flgQhAuS-rdBXl0usiVo-5">
          <mxGeometry x="-1" relative="1" as="geometry" />
        </mxCell>
        <mxCell id="flgQhAuS-rdBXl0usiVo-7" value="2" style="endArrow=block;endFill=1;html=1;edgeStyle=orthogonalEdgeStyle;align=left;verticalAlign=top;rounded=0;exitX=0.5;exitY=1;exitDx=0;exitDy=0;entryX=0;entryY=0.5;entryDx=0;entryDy=0;" edge="1" parent="1" source="_2UcLu2fhHH_CYzqvIDp-29" target="_2UcLu2fhHH_CYzqvIDp-69">
          <mxGeometry x="-1" relative="1" as="geometry">
            <mxPoint x="620" y="340" as="sourcePoint" />
            <mxPoint x="780" y="340" as="targetPoint" />
          </mxGeometry>
        </mxCell>
        <mxCell id="flgQhAuS-rdBXl0usiVo-9" value="3" style="endArrow=block;endFill=1;html=1;edgeStyle=orthogonalEdgeStyle;align=left;verticalAlign=top;rounded=0;exitX=0.25;exitY=1;exitDx=0;exitDy=0;entryX=0.996;entryY=0.653;entryDx=0;entryDy=0;entryPerimeter=0;" edge="1" parent="1" source="_2UcLu2fhHH_CYzqvIDp-69" target="_2UcLu2fhHH_CYzqvIDp-26">
          <mxGeometry x="-1" relative="1" as="geometry">
            <mxPoint x="620" y="370" as="sourcePoint" />
            <mxPoint x="780" y="370" as="targetPoint" />
          </mxGeometry>
        </mxCell>
        <mxCell id="flgQhAuS-rdBXl0usiVo-11" value="4" style="endArrow=block;endFill=1;html=1;edgeStyle=orthogonalEdgeStyle;align=left;verticalAlign=top;rounded=0;exitX=0.5;exitY=1;exitDx=0;exitDy=0;entryX=0.5;entryY=0;entryDx=0;entryDy=0;" edge="1" parent="1" source="_2UcLu2fhHH_CYzqvIDp-26" target="_2UcLu2fhHH_CYzqvIDp-83">
          <mxGeometry x="-1" relative="1" as="geometry">
            <mxPoint x="460" y="570" as="sourcePoint" />
            <mxPoint x="620" y="570" as="targetPoint" />
          </mxGeometry>
        </mxCell>
      </root>
    </mxGraphModel>
  </diagram>
  <diagram id="JVUibD3VZLxOUF3lqdkN" name="CommonsCollections1">
    <mxGraphModel dx="1050" dy="522" grid="1" gridSize="10" guides="1" tooltips="1" connect="1" arrows="1" fold="1" page="1" pageScale="1" pageWidth="827" pageHeight="1169" math="0" shadow="0">
      <root>
        <mxCell id="0" />
        <mxCell id="1" parent="0" />
        <mxCell id="ISGlQOSaQN9rvymigHPi-1" value="frame" style="shape=umlFrame;whiteSpace=wrap;html=1;rounded=0;shadow=0;comic=0;labelBackgroundColor=none;strokeWidth=1;fontFamily=Verdana;fontSize=10;align=center;" vertex="1" parent="1">
          <mxGeometry x="20" y="10" width="820" height="670" as="geometry" />
        </mxCell>
        <mxCell id="z3pKp1RRGeAEQc_cCwxm-1" value="&lt;p style=&quot;text-align: center; margin: 4px 0px 0px; line-height: 200%;&quot;&gt;&lt;b&gt;org.apache.commons.collections.functors.ChainedTransformer&lt;/b&gt;&lt;br&gt;&lt;/p&gt;&lt;hr style=&quot;border-style: solid; line-height: 200%;&quot; size=&quot;1&quot;&gt;&lt;p style=&quot;margin: 0px 0px 0px 4px; line-height: 200%;&quot;&gt;+ iTransformers[0]&lt;span style=&quot;background-color: initial;&quot;&gt;:&lt;/span&gt;&lt;span style=&quot;background-color: initial;&quot;&gt;&amp;nbsp;&lt;/span&gt;&lt;/p&gt;&lt;p style=&quot;margin: 0px 0px 0px 4px; line-height: 200%;&quot;&gt;+ iTransformers[1]&lt;span style=&quot;background-color: initial;&quot;&gt;:&lt;/span&gt;&lt;span style=&quot;background-color: initial;&quot;&gt;&amp;nbsp;&lt;/span&gt;&lt;span style=&quot;background-color: initial;&quot;&gt;&lt;br&gt;&lt;/span&gt;&lt;/p&gt;&lt;p style=&quot;margin: 0px 0px 0px 4px; line-height: 200%;&quot;&gt;+ iTransformers[2]&lt;span style=&quot;background-color: initial;&quot;&gt;:&lt;/span&gt;&lt;span style=&quot;background-color: initial;&quot;&gt;&amp;nbsp;&lt;/span&gt;&lt;span style=&quot;background-color: initial;&quot;&gt;&lt;br&gt;&lt;/span&gt;&lt;/p&gt;&lt;p style=&quot;margin: 0px 0px 0px 4px; line-height: 200%;&quot;&gt;+ iTransformers[3]&lt;span style=&quot;background-color: initial;&quot;&gt;:&lt;/span&gt;&lt;span style=&quot;background-color: initial;&quot;&gt;&amp;nbsp;&lt;/span&gt;&lt;span style=&quot;background-color: initial;&quot;&gt;&lt;br&gt;&lt;/span&gt;&lt;/p&gt;&lt;p style=&quot;margin: 0px 0px 0px 4px; line-height: 200%;&quot;&gt;+ iTransformers[4]&lt;span style=&quot;background-color: initial;&quot;&gt;:&lt;/span&gt;&lt;span style=&quot;background-color: initial;&quot;&gt;&amp;nbsp;&lt;/span&gt;&lt;/p&gt;&lt;hr style=&quot;border-style: solid; line-height: 200%;&quot; size=&quot;1&quot;&gt;&lt;p style=&quot;margin: 0px 0px 0px 4px; line-height: 200%;&quot;&gt;+ readObject()&lt;/p&gt;" style="verticalAlign=top;align=left;overflow=fill;html=1;whiteSpace=wrap;rounded=0;shadow=0;comic=0;strokeColor=default;strokeWidth=1;fontFamily=Verdana;fontSize=10;fontColor=default;labelBackgroundColor=none;fillColor=default;" vertex="1" parent="1">
          <mxGeometry x="30" y="50" width="370" height="260" as="geometry" />
        </mxCell>
        <mxCell id="m41UWZbXVzeKwZ5Q97TM-1" value="&lt;p style=&quot;text-align: center; margin: 4px 0px 0px; line-height: 200%;&quot;&gt;&lt;b&gt;org.apache.commons.collections.functors.ConstantTransformer&lt;/b&gt;&lt;br&gt;&lt;/p&gt;&lt;hr size=&quot;1&quot; style=&quot;border-style: solid; line-height: 200%;&quot;&gt;&lt;div style=&quot;height: 2px; line-height: 200%;&quot;&gt;&lt;p style=&quot;margin: 0px 0px 0px 4px; line-height: 200%;&quot;&gt;+ iConstant:&amp;nbsp;Runtime.class&lt;br&gt;&lt;/p&gt;&lt;/div&gt;" style="verticalAlign=top;align=left;overflow=fill;html=1;whiteSpace=wrap;rounded=0;shadow=0;comic=0;strokeColor=default;strokeWidth=1;fontFamily=Verdana;fontSize=10;fontColor=default;labelBackgroundColor=none;fillColor=default;" vertex="1" parent="1">
          <mxGeometry x="430" y="20" width="370" height="60" as="geometry" />
        </mxCell>
        <mxCell id="m41UWZbXVzeKwZ5Q97TM-2" value="&lt;p style=&quot;text-align: center; margin: 4px 0px 0px; line-height: 200%;&quot;&gt;&lt;b&gt;org.apache.commons.collections.functors.InvokerTransformer&lt;/b&gt;&lt;br&gt;&lt;/p&gt;&lt;hr size=&quot;1&quot; style=&quot;border-style: solid; line-height: 200%;&quot;&gt;&lt;div style=&quot;height: 2px; line-height: 200%;&quot;&gt;&lt;p style=&quot;margin: 0px 0px 0px 4px; line-height: 200%;&quot;&gt;+ iMethodName: &quot;getMethod&quot;&lt;br&gt;&lt;/p&gt;&lt;p style=&quot;margin: 0px 0px 0px 4px; line-height: 200%;&quot;&gt;+ iParamTypes[0]: String.class&lt;br&gt;&lt;/p&gt;&lt;p style=&quot;margin: 0px 0px 0px 4px; line-height: 200%;&quot;&gt;+ iParamTypes[1]: Class[].class&lt;br&gt;&lt;/p&gt;&lt;p style=&quot;margin: 0px 0px 0px 4px; line-height: 200%;&quot;&gt;+ iArgs[0]: &quot;getRuntime&quot;&lt;br&gt;&lt;/p&gt;&lt;p style=&quot;margin: 0px 0px 0px 4px; line-height: 200%;&quot;&gt;+ iArgs[1]: new Class[0] #空的Class数组，调用无参数的方法&lt;br&gt;&lt;/p&gt;&lt;/div&gt;" style="verticalAlign=top;align=left;overflow=fill;html=1;whiteSpace=wrap;rounded=0;shadow=0;comic=0;strokeColor=default;strokeWidth=1;fontFamily=Verdana;fontSize=10;fontColor=default;labelBackgroundColor=none;fillColor=default;" vertex="1" parent="1">
          <mxGeometry x="430" y="90" width="370" height="140" as="geometry" />
        </mxCell>
        <mxCell id="m41UWZbXVzeKwZ5Q97TM-3" value="&lt;p style=&quot;text-align: center; margin: 4px 0px 0px; line-height: 200%;&quot;&gt;&lt;b&gt;org.apache.commons.collections.functors.InvokerTransformer&lt;/b&gt;&lt;br&gt;&lt;/p&gt;&lt;hr size=&quot;1&quot; style=&quot;border-style: solid; line-height: 200%;&quot;&gt;&lt;div style=&quot;height: 2px; line-height: 200%;&quot;&gt;&lt;p style=&quot;margin: 0px 0px 0px 4px; line-height: 200%;&quot;&gt;+ iMethodName: &quot;invoke&quot;&lt;br&gt;&lt;/p&gt;&lt;p style=&quot;margin: 0px 0px 0px 4px; line-height: 200%;&quot;&gt;+ iParamTypes[0]: Object.class&lt;br&gt;&lt;/p&gt;&lt;p style=&quot;margin: 0px 0px 0px 4px; line-height: 200%;&quot;&gt;+ iParamTypes[1]: Object[].class&lt;br&gt;&lt;/p&gt;&lt;p style=&quot;margin: 0px 0px 0px 4px; line-height: 200%;&quot;&gt;+ iArgs[0]: null&lt;br&gt;&lt;/p&gt;&lt;p style=&quot;margin: 0px 0px 0px 4px; line-height: 200%;&quot;&gt;+ iArgs[1]: new Object[0] #空的对象数组，调用无参数的方法&lt;br&gt;&lt;/p&gt;&lt;/div&gt;" style="verticalAlign=top;align=left;overflow=fill;html=1;whiteSpace=wrap;rounded=0;shadow=0;comic=0;strokeColor=default;strokeWidth=1;fontFamily=Verdana;fontSize=10;fontColor=default;labelBackgroundColor=none;fillColor=default;" vertex="1" parent="1">
          <mxGeometry x="430" y="240" width="370" height="140" as="geometry" />
        </mxCell>
        <mxCell id="m41UWZbXVzeKwZ5Q97TM-4" value="&lt;p style=&quot;text-align: center; margin: 4px 0px 0px; line-height: 200%;&quot;&gt;&lt;b&gt;org.apache.commons.collections.functors.InvokerTransformer&lt;/b&gt;&lt;br&gt;&lt;/p&gt;&lt;hr size=&quot;1&quot; style=&quot;border-style: solid; line-height: 200%;&quot;&gt;&lt;div style=&quot;height: 2px; line-height: 200%;&quot;&gt;&lt;p style=&quot;margin: 0px 0px 0px 4px; line-height: 200%;&quot;&gt;+ iMethodName: &quot;exec&quot;&lt;br&gt;&lt;/p&gt;&lt;p style=&quot;margin: 0px 0px 0px 4px; line-height: 200%;&quot;&gt;+ iParamTypes[0]: Object.class&lt;/p&gt;&lt;p style=&quot;margin: 0px 0px 0px 4px; line-height: 200%;&quot;&gt;+ iArgs[0]: &quot;calc.exe&quot;&lt;/p&gt;&lt;/div&gt;" style="verticalAlign=top;align=left;overflow=fill;html=1;whiteSpace=wrap;rounded=0;shadow=0;comic=0;strokeColor=default;strokeWidth=1;fontFamily=Verdana;fontSize=10;fontColor=default;labelBackgroundColor=none;fillColor=default;" vertex="1" parent="1">
          <mxGeometry x="430" y="390" width="370" height="100" as="geometry" />
        </mxCell>
        <mxCell id="m41UWZbXVzeKwZ5Q97TM-5" value="&lt;p style=&quot;text-align: center; margin: 4px 0px 0px; line-height: 200%;&quot;&gt;&lt;b&gt;org.apache.commons.collections.functors.ConstantTransformer&lt;/b&gt;&lt;br&gt;&lt;/p&gt;&lt;hr size=&quot;1&quot; style=&quot;border-style: solid; line-height: 200%;&quot;&gt;&lt;div style=&quot;height: 2px; line-height: 200%;&quot;&gt;&lt;p style=&quot;margin: 0px 0px 0px 4px; line-height: 200%;&quot;&gt;+ iConstant:&amp;nbsp;1&lt;br&gt;&lt;/p&gt;&lt;/div&gt;" style="verticalAlign=top;align=left;overflow=fill;html=1;whiteSpace=wrap;rounded=0;shadow=0;comic=0;strokeColor=default;strokeWidth=1;fontFamily=Verdana;fontSize=10;fontColor=default;labelBackgroundColor=none;fillColor=default;" vertex="1" parent="1">
          <mxGeometry x="430" y="500" width="370" height="60" as="geometry" />
        </mxCell>
      </root>
    </mxGraphModel>
  </diagram>
  <diagram id="fF23FZXf3aQxCKROGalZ" name="CommonsCollections2">
    <mxGraphModel dx="1050" dy="522" grid="1" gridSize="10" guides="1" tooltips="1" connect="1" arrows="1" fold="1" page="1" pageScale="1" pageWidth="827" pageHeight="1169" math="0" shadow="0">
      <root>
        <mxCell id="0" />
        <mxCell id="1" parent="0" />
        <mxCell id="SbKOU-wwyYB9vxj8bMfM-1" value="frame" style="shape=umlFrame;whiteSpace=wrap;html=1;rounded=0;shadow=0;comic=0;labelBackgroundColor=none;strokeWidth=1;fontFamily=Verdana;fontSize=10;align=center;" vertex="1" parent="1">
          <mxGeometry x="20" y="10" width="820" height="670" as="geometry" />
        </mxCell>
        <mxCell id="Z3rI0YJu9gsnEkWdPvIH-1" value="&lt;p style=&quot;margin: 4px 0px 0px; text-align: center; line-height: 200%;&quot;&gt;&lt;b&gt;org.apache.xalan.xsltc.trax.TemplatesImpl&lt;/b&gt;&lt;br&gt;&lt;/p&gt;&lt;hr size=&quot;1&quot; style=&quot;border-style: solid; line-height: 200%;&quot;&gt;&lt;p style=&quot;margin: 0px 0px 0px 4px; line-height: 200%;&quot;&gt;+ _bytecodes[0][]&lt;span style=&quot;background-color: initial;&quot;&gt;: class&lt;/span&gt;&lt;span style=&quot;background-color: initial;&quot;&gt;【静态代码包含命令执行函数】&lt;/span&gt;&lt;/p&gt;&lt;p style=&quot;margin: 0px 0px 0px 4px; line-height: 200%;&quot;&gt;+ _bytecodes[1][]&lt;span style=&quot;background-color: initial;&quot;&gt;:&lt;/span&gt;&lt;span style=&quot;background-color: initial;&quot;&gt;&amp;nbsp;&lt;/span&gt;&lt;span style=&quot;background-color: initial;&quot;&gt;Foo类&lt;/span&gt;&lt;/p&gt;&lt;p style=&quot;margin: 0px 0px 0px 4px; line-height: 200%;&quot;&gt;+ _name&lt;span style=&quot;background-color: initial;&quot;&gt;:&lt;/span&gt;&lt;span style=&quot;background-color: initial;&quot;&gt;&amp;nbsp;&lt;/span&gt;&lt;span style=&quot;background-color: initial;&quot;&gt;&quot;Pwnr&quot;&lt;/span&gt;&lt;/p&gt;&lt;p style=&quot;margin: 0px 0px 0px 4px; line-height: 200%;&quot;&gt;+ _tfactory&lt;span style=&quot;background-color: initial;&quot;&gt;:&lt;/span&gt;&lt;span style=&quot;background-color: initial;&quot;&gt;&amp;nbsp;&lt;/span&gt;&lt;span style=&quot;background-color: initial;&quot;&gt;TransformerFactoryImpl&lt;/span&gt;&lt;span style=&quot;background-color: initial;&quot;&gt;类&lt;/span&gt;&lt;/p&gt;&lt;p style=&quot;margin: 0px 0px 0px 4px; line-height: 200%;&quot;&gt;&lt;span style=&quot;background-color: initial;&quot;&gt;+&amp;nbsp;&lt;/span&gt;&lt;span style=&quot;background-color: initial;&quot;&gt;_transletIndex: 0&lt;/span&gt;&lt;/p&gt;&lt;p style=&quot;margin: 0px 0px 0px 4px; line-height: 200%;&quot;&gt;+&amp;nbsp;_class[i]: loader.defineClass(_bytecodes[i])&lt;span style=&quot;background-color: initial;&quot;&gt;&lt;br&gt;&lt;/span&gt;&lt;/p&gt;&lt;hr size=&quot;1&quot; style=&quot;border-style: solid; line-height: 200%;&quot;&gt;&lt;p style=&quot;margin: 0px 0px 0px 4px; line-height: 200%;&quot;&gt;&lt;span style=&quot;background-color: initial;&quot;&gt;+ newTransformer()&lt;/span&gt;&lt;br&gt;&lt;/p&gt;&lt;p style=&quot;margin: 0px 0px 0px 4px; line-height: 200%;&quot;&gt;+ getTransletInstance()&lt;br&gt;&lt;/p&gt;&lt;p style=&quot;margin: 0px 0px 0px 4px; line-height: 200%;&quot;&gt;+&amp;nbsp;defineTransletClasses():&amp;nbsp;&lt;span style=&quot;background-color: initial;&quot;&gt;_class[i]&lt;/span&gt;&lt;/p&gt;&lt;p style=&quot;margin: 0px 0px 0px 4px; line-height: 200%;&quot;&gt;+ _class[_transletIndex].newInstance()&lt;br&gt;&lt;/p&gt;" style="verticalAlign=top;align=left;overflow=fill;html=1;whiteSpace=wrap;rounded=0;shadow=0;comic=0;strokeColor=default;strokeWidth=1;fontFamily=Verdana;fontSize=10;fontColor=default;labelBackgroundColor=none;fillColor=default;" vertex="1" parent="1">
          <mxGeometry x="70" y="290" width="280" height="250" as="geometry" />
        </mxCell>
        <mxCell id="NXC7SbQ0rlmNNDsdM5lN-1" value="&lt;p style=&quot;margin: 4px 0px 0px; text-align: center; line-height: 200%;&quot;&gt;&lt;b style=&quot;text-align: left;&quot;&gt;java.util.PriorityQueue&lt;/b&gt;&lt;br&gt;&lt;/p&gt;&lt;hr size=&quot;1&quot; style=&quot;border-style: solid; line-height: 200%;&quot;&gt;&lt;p style=&quot;margin: 0px 0px 0px 4px; line-height: 20px;&quot;&gt;+ queueArray[0]&lt;span style=&quot;background-color: initial;&quot;&gt;:&lt;/span&gt;&lt;span style=&quot;background-color: initial;&quot;&gt;&amp;nbsp;&lt;/span&gt;&lt;span style=&quot;background-color: initial;&quot;&gt;TemplatesImpl&lt;/span&gt;&lt;/p&gt;&lt;p style=&quot;margin: 0px 0px 0px 4px; line-height: 20px;&quot;&gt;+ queueArray[1]&lt;span style=&quot;background-color: initial;&quot;&gt;:&lt;/span&gt;&lt;span style=&quot;background-color: initial;&quot;&gt;&amp;nbsp;&lt;/span&gt;&lt;span style=&quot;background-color: initial;&quot;&gt;1&lt;/span&gt;&lt;/p&gt;&lt;p style=&quot;margin: 0px 0px 0px 4px; line-height: 200%;&quot;&gt;&lt;span style=&quot;background-color: initial;&quot;&gt;+&amp;nbsp;&lt;/span&gt;&lt;span style=&quot;background-color: initial;&quot;&gt;comparator:&amp;nbsp;&lt;/span&gt;&lt;span style=&quot;background-color: initial;&quot;&gt;TransformingComparator【比较器类】&lt;/span&gt;&lt;/p&gt;&lt;hr size=&quot;1&quot; style=&quot;border-style: solid; line-height: 200%;&quot;&gt;&lt;p style=&quot;margin: 0px 0px 0px 4px; line-height: 200%;&quot;&gt;+ readObject()&lt;/p&gt;&lt;p style=&quot;margin: 0px 0px 0px 4px; line-height: 200%;&quot;&gt;+ comparator.compare(TemplatesImpl, 1)&lt;br&gt;&lt;/p&gt;" style="verticalAlign=top;align=left;overflow=fill;html=1;whiteSpace=wrap;rounded=0;shadow=0;comic=0;strokeColor=default;strokeWidth=1;fontFamily=Verdana;fontSize=10;fontColor=default;labelBackgroundColor=none;fillColor=default;" vertex="1" parent="1">
          <mxGeometry x="70" y="60" width="270" height="150" as="geometry" />
        </mxCell>
        <mxCell id="q5MH4iAdeuqOref4XpPA-1" value="" style="endArrow=open;endSize=12;dashed=1;html=1;rounded=0;fontFamily=Verdana;fontSize=10;fontColor=default;labelBackgroundColor=none;entryX=0.5;entryY=0;entryDx=0;entryDy=0;edgeStyle=orthogonalEdgeStyle;curved=1;" edge="1" parent="1" target="Z3rI0YJu9gsnEkWdPvIH-1">
          <mxGeometry width="160" relative="1" as="geometry">
            <mxPoint x="70" y="100" as="sourcePoint" />
            <mxPoint x="220" y="202" as="targetPoint" />
            <Array as="points">
              <mxPoint x="70" y="100" />
              <mxPoint x="30" y="100" />
              <mxPoint x="30" y="250" />
              <mxPoint x="210" y="250" />
            </Array>
          </mxGeometry>
        </mxCell>
        <mxCell id="FT9YCw2Xf-gIWbJ7Dj2z-2" value="" style="endArrow=open;endSize=12;dashed=1;html=1;rounded=0;fontFamily=Verdana;fontSize=10;fontColor=default;labelBackgroundColor=none;exitX=1.004;exitY=0.563;exitDx=0;exitDy=0;edgeStyle=orthogonalEdgeStyle;curved=1;entryX=0.5;entryY=0;entryDx=0;entryDy=0;exitPerimeter=0;" edge="1" parent="1" source="NXC7SbQ0rlmNNDsdM5lN-1" target="yqI_2R0TfXgBW7msjzvI-1">
          <mxGeometry width="160" relative="1" as="geometry">
            <mxPoint x="410" y="110" as="sourcePoint" />
            <mxPoint x="612" y="70" as="targetPoint" />
            <Array as="points">
              <mxPoint x="340" y="145" />
              <mxPoint x="340" y="140" />
              <mxPoint x="360" y="140" />
              <mxPoint x="360" y="30" />
              <mxPoint x="611" y="30" />
            </Array>
          </mxGeometry>
        </mxCell>
        <mxCell id="_Ci6SbBfIDqgqOxr-5yY-1" value="反序列化开始" style="label;fontStyle=0;strokeColor=none;fillColor=none;align=left;verticalAlign=top;overflow=hidden;spacingLeft=28;spacingRight=4;rotatable=0;points=[[0,0.5],[1,0.5]];portConstraint=eastwest;imageWidth=16;imageHeight=16;whiteSpace=wrap;html=1;image=img/clipart/Gear_128x128.png;rounded=0;shadow=0;comic=0;strokeWidth=1;fontFamily=Verdana;fontSize=10;fontColor=default;labelBackgroundColor=none;" vertex="1" parent="1">
          <mxGeometry x="145" y="160" width="120" height="26" as="geometry" />
        </mxCell>
        <mxCell id="yqI_2R0TfXgBW7msjzvI-1" value="&lt;p style=&quot;margin: 4px 0px 0px; text-align: center; line-height: 200%;&quot;&gt;&lt;b&gt;org.apache.commons.collections4.comparators.TransformingComparator&lt;/b&gt;&lt;br&gt;&lt;/p&gt;&lt;hr size=&quot;1&quot; style=&quot;border-style: solid; line-height: 200%;&quot;&gt;&lt;p style=&quot;margin: 0px 0px 0px 4px; line-height: 20px;&quot;&gt;+ decorated: ComparableComparator类&lt;br&gt;&lt;/p&gt;&lt;p style=&quot;margin: 0px 0px 0px 4px; line-height: 20px;&quot;&gt;+ transformer: InvokerTransformer类&lt;/p&gt;&lt;hr size=&quot;1&quot; style=&quot;border-style: solid; line-height: 200%;&quot;&gt;&lt;p style=&quot;margin: 0px 0px 0px 4px; line-height: 200%;&quot;&gt;+ compare(TemplatesImpl, 1)&lt;/p&gt;&lt;p style=&quot;margin: 0px 0px 0px 4px; line-height: 200%;&quot;&gt;+&amp;nbsp;transformer.transform(TemplatesImpl)&lt;/p&gt;" style="verticalAlign=top;align=left;overflow=fill;html=1;whiteSpace=wrap;rounded=0;shadow=0;comic=0;strokeColor=default;strokeWidth=1;fontFamily=Verdana;fontSize=10;fontColor=default;labelBackgroundColor=none;fillColor=default;" vertex="1" parent="1">
          <mxGeometry x="394" y="60" width="433" height="130" as="geometry" />
        </mxCell>
        <mxCell id="yqI_2R0TfXgBW7msjzvI-2" value="" style="endArrow=open;endSize=12;dashed=1;html=1;rounded=0;fontFamily=Verdana;fontSize=10;fontColor=default;labelBackgroundColor=none;exitX=0;exitY=0.5;exitDx=0;exitDy=0;edgeStyle=orthogonalEdgeStyle;curved=1;entryX=0.5;entryY=0;entryDx=0;entryDy=0;" edge="1" parent="1" source="yqI_2R0TfXgBW7msjzvI-1" target="nINHDT613CRE90P-qR1H-1">
          <mxGeometry width="160" relative="1" as="geometry">
            <mxPoint x="350" y="313" as="sourcePoint" />
            <mxPoint x="625" y="220" as="targetPoint" />
            <Array as="points">
              <mxPoint x="394" y="140" />
              <mxPoint x="380" y="140" />
              <mxPoint x="380" y="220" />
              <mxPoint x="642" y="220" />
            </Array>
          </mxGeometry>
        </mxCell>
        <mxCell id="nINHDT613CRE90P-qR1H-1" value="&lt;p style=&quot;margin: 4px 0px 0px; text-align: center; line-height: 200%;&quot;&gt;&lt;b&gt;org.apache.commons.collections.functors.InvokerTransformer&lt;/b&gt;&lt;br&gt;&lt;/p&gt;&lt;hr size=&quot;1&quot; style=&quot;border-style: solid; line-height: 200%;&quot;&gt;&lt;p style=&quot;margin: 0px 0px 0px 4px; line-height: 20px;&quot;&gt;+ iMethodName: &quot;newTransformer&quot;&lt;br&gt;&lt;/p&gt;&lt;p style=&quot;margin: 0px 0px 0px 4px; line-height: 20px;&quot;&gt;+ iParamTypes: new Class[0]&lt;/p&gt;&lt;p style=&quot;margin: 0px 0px 0px 4px; line-height: 20px;&quot;&gt;+ iArgs: new Object[0]&lt;/p&gt;&lt;hr size=&quot;1&quot; style=&quot;border-style: solid; line-height: 200%;&quot;&gt;&lt;p style=&quot;margin: 0px 0px 0px 4px; line-height: 200%;&quot;&gt;+ transform(TemplatesImpl)&lt;/p&gt;&lt;p style=&quot;margin: 0px 0px 0px 4px; line-height: 200%;&quot;&gt;+ (method)&quot;newTransformer&quot;.invoke(TemplatesImpl, new Object[0])&lt;br&gt;&lt;/p&gt;" style="verticalAlign=top;align=left;overflow=fill;html=1;whiteSpace=wrap;rounded=0;shadow=0;comic=0;strokeColor=default;strokeWidth=1;fontFamily=Verdana;fontSize=10;fontColor=default;labelBackgroundColor=none;fillColor=default;" vertex="1" parent="1">
          <mxGeometry x="457" y="290" width="370" height="150" as="geometry" />
        </mxCell>
        <mxCell id="mSekrJcokPSYk9qUPEJs-1" value="2" style="endArrow=block;endFill=1;html=1;edgeStyle=orthogonalEdgeStyle;align=left;verticalAlign=top;rounded=0;exitX=0.25;exitY=1;exitDx=0;exitDy=0;entryX=0;entryY=0.75;entryDx=0;entryDy=0;" edge="1" parent="1" source="yqI_2R0TfXgBW7msjzvI-1" target="nINHDT613CRE90P-qR1H-1">
          <mxGeometry x="-1" relative="1" as="geometry">
            <mxPoint x="480" y="440" as="sourcePoint" />
            <mxPoint x="640" y="440" as="targetPoint" />
          </mxGeometry>
        </mxCell>
        <mxCell id="mSekrJcokPSYk9qUPEJs-3" value="3" style="endArrow=block;endFill=1;html=1;edgeStyle=orthogonalEdgeStyle;align=left;verticalAlign=top;rounded=0;exitX=0.25;exitY=1;exitDx=0;exitDy=0;entryX=1;entryY=0.701;entryDx=0;entryDy=0;entryPerimeter=0;" edge="1" parent="1" source="nINHDT613CRE90P-qR1H-1" target="Z3rI0YJu9gsnEkWdPvIH-1">
          <mxGeometry x="-1" relative="1" as="geometry">
            <mxPoint x="470" y="490" as="sourcePoint" />
            <mxPoint x="630" y="490" as="targetPoint" />
          </mxGeometry>
        </mxCell>
        <mxCell id="mSekrJcokPSYk9qUPEJs-5" value="" style="endArrow=block;endFill=1;html=1;edgeStyle=orthogonalEdgeStyle;align=left;verticalAlign=top;rounded=0;exitX=0.999;exitY=0.899;exitDx=0;exitDy=0;exitPerimeter=0;entryX=0;entryY=0.75;entryDx=0;entryDy=0;" edge="1" parent="1" source="NXC7SbQ0rlmNNDsdM5lN-1" target="yqI_2R0TfXgBW7msjzvI-1">
          <mxGeometry x="-1" relative="1" as="geometry">
            <mxPoint x="334" y="210" as="sourcePoint" />
            <mxPoint x="394" y="210" as="targetPoint" />
          </mxGeometry>
        </mxCell>
        <mxCell id="mSekrJcokPSYk9qUPEJs-6" value="1" style="edgeLabel;resizable=0;html=1;align=left;verticalAlign=bottom;" connectable="0" vertex="1" parent="mSekrJcokPSYk9qUPEJs-5">
          <mxGeometry x="-1" relative="1" as="geometry" />
        </mxCell>
        <mxCell id="U-7nDVRlocQb9SG7iBOR-1" value="&lt;p style=&quot;text-align: center; margin: 4px 0px 0px; line-height: 200%;&quot;&gt;&lt;b&gt;java.lang.Runtime&lt;/b&gt;&lt;br&gt;&lt;/p&gt;&lt;hr size=&quot;1&quot; style=&quot;border-style: solid; line-height: 200%;&quot;&gt;&lt;div style=&quot;height: 2px; line-height: 200%;&quot;&gt;&lt;p style=&quot;margin: 0px 0px 0px 4px; line-height: 200%;&quot;&gt;+ exec(String command)&lt;br&gt;&lt;/p&gt;&lt;/div&gt;" style="verticalAlign=top;align=left;overflow=fill;html=1;whiteSpace=wrap;rounded=0;shadow=0;comic=0;strokeColor=default;strokeWidth=1;fontFamily=Verdana;fontSize=10;fontColor=default;labelBackgroundColor=none;fillColor=default;" vertex="1" parent="1">
          <mxGeometry x="70" y="570" width="280" height="60" as="geometry" />
        </mxCell>
        <mxCell id="q9pLuawmAzcltUkh1_xl-1" value="命令执行结束" style="label;fontStyle=0;strokeColor=none;fillColor=none;align=left;verticalAlign=top;overflow=hidden;spacingLeft=28;spacingRight=4;rotatable=0;points=[[0,0.5],[1,0.5]];portConstraint=eastwest;imageWidth=16;imageHeight=16;whiteSpace=wrap;html=1;image=img/clipart/Gear_128x128.png;rounded=0;shadow=0;comic=0;strokeWidth=1;fontFamily=Verdana;fontSize=10;fontColor=default;labelBackgroundColor=none;" vertex="1" parent="1">
          <mxGeometry x="200" y="604" width="120" height="26" as="geometry" />
        </mxCell>
        <mxCell id="CWgaFdaVHcFsVuaG2qUE-1" value="4" style="endArrow=block;endFill=1;html=1;edgeStyle=orthogonalEdgeStyle;align=left;verticalAlign=top;rounded=0;exitX=0.5;exitY=1;exitDx=0;exitDy=0;entryX=0.5;entryY=0;entryDx=0;entryDy=0;" edge="1" parent="1" source="Z3rI0YJu9gsnEkWdPvIH-1" target="U-7nDVRlocQb9SG7iBOR-1">
          <mxGeometry x="-1" relative="1" as="geometry">
            <mxPoint x="430" y="570" as="sourcePoint" />
            <mxPoint x="590" y="570" as="targetPoint" />
          </mxGeometry>
        </mxCell>
        <mxCell id="JqzEu_E1Uiq5uzM4hS0K-1" value="&lt;p style=&quot;line-height: 200%;&quot;&gt;版本：cc4.0&lt;/p&gt;" style="text;html=1;align=left;verticalAlign=middle;whiteSpace=wrap;rounded=0;" vertex="1" parent="1">
          <mxGeometry x="590" y="470" width="73.25" height="25" as="geometry" />
        </mxCell>
      </root>
    </mxGraphModel>
  </diagram>
  <diagram id="bHkPL728FClRdKa7jLt5" name="CommonsCollections5">
    <mxGraphModel dx="3154" dy="1915" grid="1" gridSize="10" guides="1" tooltips="1" connect="1" arrows="1" fold="1" page="1" pageScale="1" pageWidth="827" pageHeight="1169" math="0" shadow="0">
      <root>
        <mxCell id="0" />
        <mxCell id="1" parent="0" />
        <mxCell id="9aW4lmUeaGRTLgVxp6b_-1" value="frame" style="shape=umlFrame;whiteSpace=wrap;html=1;rounded=0;shadow=0;comic=0;labelBackgroundColor=none;strokeWidth=1;fontFamily=Verdana;fontSize=10;align=center;" vertex="1" parent="1">
          <mxGeometry x="-840" y="-180" width="1320" height="1070" as="geometry" />
        </mxCell>
        <mxCell id="9aW4lmUeaGRTLgVxp6b_-3" value="&lt;p style=&quot;text-align: center; margin: 4px 0px 0px; line-height: 200%;&quot;&gt;&lt;b&gt;org.apache.commons.collections.functors.ConstantTransformer&lt;/b&gt;&lt;br&gt;&lt;/p&gt;&lt;hr size=&quot;1&quot; style=&quot;border-style: solid; line-height: 200%;&quot;&gt;&lt;div style=&quot;height: 2px; line-height: 200%;&quot;&gt;&lt;p style=&quot;margin: 0px 0px 0px 4px; line-height: 200%;&quot;&gt;+ iConstant:&amp;nbsp;Runtime.class&lt;br&gt;&lt;/p&gt;&lt;/div&gt;" style="verticalAlign=top;align=left;overflow=fill;html=1;whiteSpace=wrap;rounded=0;shadow=0;comic=0;strokeColor=default;strokeWidth=1;fontFamily=Verdana;fontSize=10;fontColor=default;labelBackgroundColor=none;fillColor=default;" vertex="1" parent="1">
          <mxGeometry x="100" y="-110" width="370" height="60" as="geometry" />
        </mxCell>
        <mxCell id="9aW4lmUeaGRTLgVxp6b_-4" value="&lt;p style=&quot;text-align: center; margin: 4px 0px 0px; line-height: 200%;&quot;&gt;&lt;b&gt;org.apache.commons.collections.functors.InvokerTransformer&lt;/b&gt;&lt;br&gt;&lt;/p&gt;&lt;hr size=&quot;1&quot; style=&quot;border-style: solid; line-height: 200%;&quot;&gt;&lt;div style=&quot;height: 2px; line-height: 200%;&quot;&gt;&lt;p style=&quot;margin: 0px 0px 0px 4px; line-height: 200%;&quot;&gt;+ iMethodName: &quot;getMethod&quot;&lt;br&gt;&lt;/p&gt;&lt;p style=&quot;margin: 0px 0px 0px 4px; line-height: 200%;&quot;&gt;+ iParamTypes[0]: String.class&lt;br&gt;&lt;/p&gt;&lt;p style=&quot;margin: 0px 0px 0px 4px; line-height: 200%;&quot;&gt;+ iParamTypes[1]: Class[].class&lt;br&gt;&lt;/p&gt;&lt;p style=&quot;margin: 0px 0px 0px 4px; line-height: 200%;&quot;&gt;+ iArgs[0]: &quot;getRuntime&quot;&lt;br&gt;&lt;/p&gt;&lt;p style=&quot;margin: 0px 0px 0px 4px; line-height: 200%;&quot;&gt;+ iArgs[1]: new Class[0] #空的Class数组，调用无参数的方法&lt;br&gt;&lt;/p&gt;&lt;/div&gt;" style="verticalAlign=top;align=left;overflow=fill;html=1;whiteSpace=wrap;rounded=0;shadow=0;comic=0;strokeColor=default;strokeWidth=1;fontFamily=Verdana;fontSize=10;fontColor=default;labelBackgroundColor=none;fillColor=default;" vertex="1" parent="1">
          <mxGeometry x="100" y="-42.5" width="370" height="140" as="geometry" />
        </mxCell>
        <mxCell id="9aW4lmUeaGRTLgVxp6b_-5" value="&lt;p style=&quot;text-align: center; margin: 4px 0px 0px; line-height: 200%;&quot;&gt;&lt;b&gt;org.apache.commons.collections.functors.InvokerTransformer&lt;/b&gt;&lt;br&gt;&lt;/p&gt;&lt;hr size=&quot;1&quot; style=&quot;border-style: solid; line-height: 200%;&quot;&gt;&lt;div style=&quot;height: 2px; line-height: 200%;&quot;&gt;&lt;p style=&quot;margin: 0px 0px 0px 4px; line-height: 200%;&quot;&gt;+ iMethodName: &quot;invoke&quot;&lt;br&gt;&lt;/p&gt;&lt;p style=&quot;margin: 0px 0px 0px 4px; line-height: 200%;&quot;&gt;+ iParamTypes[0]: Object.class&lt;br&gt;&lt;/p&gt;&lt;p style=&quot;margin: 0px 0px 0px 4px; line-height: 200%;&quot;&gt;+ iParamTypes[1]: Object[].class&lt;br&gt;&lt;/p&gt;&lt;p style=&quot;margin: 0px 0px 0px 4px; line-height: 200%;&quot;&gt;+ iArgs[0]: null&lt;br&gt;&lt;/p&gt;&lt;p style=&quot;margin: 0px 0px 0px 4px; line-height: 200%;&quot;&gt;+ iArgs[1]: new Object[0] #空的对象数组，调用无参数的方法&lt;br&gt;&lt;/p&gt;&lt;/div&gt;" style="verticalAlign=top;align=left;overflow=fill;html=1;whiteSpace=wrap;rounded=0;shadow=0;comic=0;strokeColor=default;strokeWidth=1;fontFamily=Verdana;fontSize=10;fontColor=default;labelBackgroundColor=none;fillColor=default;" vertex="1" parent="1">
          <mxGeometry x="100" y="103.75" width="370" height="140" as="geometry" />
        </mxCell>
        <mxCell id="9aW4lmUeaGRTLgVxp6b_-6" value="&lt;p style=&quot;text-align: center; margin: 4px 0px 0px; line-height: 200%;&quot;&gt;&lt;b&gt;org.apache.commons.collections.functors.InvokerTransformer&lt;/b&gt;&lt;br&gt;&lt;/p&gt;&lt;hr size=&quot;1&quot; style=&quot;border-style: solid; line-height: 200%;&quot;&gt;&lt;div style=&quot;height: 2px; line-height: 200%;&quot;&gt;&lt;p style=&quot;margin: 0px 0px 0px 4px; line-height: 200%;&quot;&gt;+ iMethodName: &quot;exec&quot;&lt;br&gt;&lt;/p&gt;&lt;p style=&quot;margin: 0px 0px 0px 4px; line-height: 200%;&quot;&gt;+ iParamTypes[0]: Object.class&lt;/p&gt;&lt;p style=&quot;margin: 0px 0px 0px 4px; line-height: 200%;&quot;&gt;+ iArgs[0]: &quot;calc.exe&quot;&lt;/p&gt;&lt;/div&gt;" style="verticalAlign=top;align=left;overflow=fill;html=1;whiteSpace=wrap;rounded=0;shadow=0;comic=0;strokeColor=default;strokeWidth=1;fontFamily=Verdana;fontSize=10;fontColor=default;labelBackgroundColor=none;fillColor=default;" vertex="1" parent="1">
          <mxGeometry x="100" y="250" width="370" height="100" as="geometry" />
        </mxCell>
        <mxCell id="9aW4lmUeaGRTLgVxp6b_-7" value="&lt;p style=&quot;text-align: center; margin: 4px 0px 0px; line-height: 200%;&quot;&gt;&lt;b&gt;org.apache.commons.collections.functors.ConstantTransformer&lt;/b&gt;&lt;br&gt;&lt;/p&gt;&lt;hr size=&quot;1&quot; style=&quot;border-style: solid; line-height: 200%;&quot;&gt;&lt;div style=&quot;height: 2px; line-height: 200%;&quot;&gt;&lt;p style=&quot;margin: 0px 0px 0px 4px; line-height: 200%;&quot;&gt;+ iConstant:&amp;nbsp;1&lt;br&gt;&lt;/p&gt;&lt;/div&gt;" style="verticalAlign=top;align=left;overflow=fill;html=1;whiteSpace=wrap;rounded=0;shadow=0;comic=0;strokeColor=default;strokeWidth=1;fontFamily=Verdana;fontSize=10;fontColor=default;labelBackgroundColor=none;fillColor=default;" vertex="1" parent="1">
          <mxGeometry x="100" y="360" width="370" height="60" as="geometry" />
        </mxCell>
        <mxCell id="dwE6JiTpVuSONAQaIM0f-1" value="&lt;p style=&quot;text-align: center; margin: 4px 0px 0px; line-height: 200%;&quot;&gt;&lt;b&gt;javax.management.BadAttributeValueExpException&lt;/b&gt;&lt;br&gt;&lt;/p&gt;&lt;hr size=&quot;1&quot; style=&quot;text-align: center; border-style: solid; line-height: 200%;&quot;&gt;&lt;p style=&quot;margin: 0px 0px 0px 4px; line-height: 20px;&quot;&gt;+ val&lt;span style=&quot;background-color: initial;&quot;&gt;:&lt;/span&gt;&lt;span style=&quot;background-color: initial;&quot;&gt;&amp;nbsp;&lt;/span&gt;&lt;span style=&quot;background-color: initial;&quot;&gt;TiedMapEntry&lt;/span&gt;&lt;/p&gt;&lt;hr size=&quot;1&quot; style=&quot;border-style: solid; line-height: 200%;&quot;&gt;&lt;p style=&quot;margin: 0px 0px 0px 4px; line-height: 200%;&quot;&gt;+ readObject()&lt;/p&gt;&lt;p style=&quot;margin: 0px 0px 0px 4px; line-height: 200%;&quot;&gt;+ TiedMapEntry.toString()&lt;br&gt;&lt;/p&gt;&lt;p style=&quot;margin: 0px 0px 0px 4px; line-height: 200%;&quot;&gt;+ TiedMapEntry.getValue()&lt;br&gt;&lt;/p&gt;" style="verticalAlign=top;align=left;overflow=fill;html=1;whiteSpace=wrap;rounded=0;shadow=0;comic=0;strokeColor=default;strokeWidth=1;fontFamily=Verdana;fontSize=10;fontColor=default;labelBackgroundColor=none;fillColor=default;" vertex="1" parent="1">
          <mxGeometry x="-780" y="-120" width="330" height="130" as="geometry" />
        </mxCell>
        <mxCell id="dwE6JiTpVuSONAQaIM0f-3" value="&lt;p style=&quot;text-align: center; margin: 4px 0px 0px; line-height: 200%;&quot;&gt;&lt;b&gt;org.apache.commons.collections.map.LazyMap&lt;/b&gt;&lt;br&gt;&lt;/p&gt;&lt;hr size=&quot;1&quot; style=&quot;text-align: center; border-style: solid; line-height: 200%;&quot;&gt;&lt;p style=&quot;margin: 0px 0px 0px 4px; line-height: 20px;&quot;&gt;+&amp;nbsp;&lt;span style=&quot;background-color: initial;&quot;&gt;HashMap&lt;/span&gt;&lt;/p&gt;&lt;p style=&quot;margin: 0px 0px 0px 4px; line-height: 20px;&quot;&gt;+ factory&lt;span style=&quot;background-color: initial;&quot;&gt;:&lt;/span&gt;&lt;span style=&quot;background-color: initial;&quot;&gt;&amp;nbsp;&lt;/span&gt;&lt;span style=&quot;background-color: initial;&quot;&gt;ChainedTransformer&lt;/span&gt;&lt;/p&gt;&lt;hr size=&quot;1&quot; style=&quot;border-style: solid; line-height: 200%;&quot;&gt;&lt;p style=&quot;margin: 0px 0px 0px 4px; line-height: 200%;&quot;&gt;+&amp;nbsp;LazyMap.get(&quot;foo&quot;)&lt;span style=&quot;background-color: initial;&quot;&gt;&lt;br&gt;&lt;/span&gt;&lt;/p&gt;&lt;p style=&quot;margin: 0px 0px 0px 4px; line-height: 200%;&quot;&gt;&lt;span style=&quot;background-color: initial;&quot;&gt;+ &lt;/span&gt;&lt;span style=&quot;background-color: initial;&quot;&gt;ChainedTransformer.transform(&quot;foo&quot;)&lt;/span&gt;&lt;/p&gt;&lt;p style=&quot;margin: 0px 0px 0px 4px; line-height: 200%;&quot;&gt;&lt;span style=&quot;background-color: initial;&quot;&gt;+ (&lt;/span&gt;&lt;span style=&quot;background-color: initial;&quot;&gt;iTransformers[0]&lt;/span&gt;&lt;span style=&quot;background-color: initial;&quot;&gt;)&lt;/span&gt;&lt;span style=&quot;background-color: initial;&quot;&gt;ConstantTransformer.transform(&quot;foo&quot;):&amp;nbsp;&lt;/span&gt;&lt;span style=&quot;background-color: initial;&quot;&gt;class java.lang.Runtime&lt;/span&gt;&lt;/p&gt;&lt;p style=&quot;margin: 0px 0px 0px 4px; line-height: 200%;&quot;&gt;&lt;span style=&quot;background-color: initial;&quot;&gt;+ (&lt;/span&gt;&lt;span style=&quot;background-color: initial;&quot;&gt;iTransformers[1]&lt;/span&gt;&lt;span style=&quot;background-color: initial;&quot;&gt;)&lt;/span&gt;&lt;span style=&quot;background-color: initial;&quot;&gt;InvokerTransformer.transform(class java.lang.Runtime):&amp;nbsp;&lt;/span&gt;&lt;span style=&quot;background-color: initial;&quot;&gt;(method)java.lang.Runtime.getRuntime()&lt;/span&gt;&lt;/p&gt;&lt;p style=&quot;margin: 0px 0px 0px 4px; line-height: 200%;&quot;&gt;&lt;span style=&quot;background-color: initial;&quot;&gt;+ (&lt;/span&gt;&lt;span style=&quot;background-color: initial;&quot;&gt;iTransformers[2]&lt;/span&gt;&lt;span style=&quot;background-color: initial;&quot;&gt;)&lt;/span&gt;&lt;span style=&quot;background-color: initial;&quot;&gt;InvokerTransformer.transform((method)java.lang.Runtime.getRuntime()):&amp;nbsp;&lt;/span&gt;&lt;span style=&quot;background-color: initial;&quot;&gt;java.lang.Runtime类&lt;/span&gt;&lt;/p&gt;&lt;p style=&quot;margin: 0px 0px 0px 4px; line-height: 200%;&quot;&gt;&lt;span style=&quot;background-color: initial;&quot;&gt;+ (&lt;/span&gt;&lt;span style=&quot;background-color: initial;&quot;&gt;iTransformers[3]&lt;/span&gt;&lt;span style=&quot;background-color: initial;&quot;&gt;)&lt;/span&gt;&lt;span style=&quot;background-color: initial;&quot;&gt;InvokerTransformer.transform(&lt;/span&gt;java.lang.Runtime类&lt;span style=&quot;background-color: initial;&quot;&gt;)&lt;/span&gt;&lt;span style=&quot;background-color: initial;&quot;&gt;&lt;br&gt;&lt;/span&gt;&lt;/p&gt;&lt;p style=&quot;margin: 0px 0px 0px 4px; line-height: 200%;&quot;&gt;&lt;span style=&quot;background-color: initial;&quot;&gt;+&amp;nbsp;&lt;/span&gt;&lt;span style=&quot;background-color: initial;&quot;&gt;java.lang.Runtime.&lt;/span&gt;&lt;span style=&quot;background-color: initial;&quot;&gt;exec(&quot;calc.exe&quot;) #到这一步就实现了命令执行&lt;/span&gt;&lt;/p&gt;&lt;p style=&quot;margin: 0px 0px 0px 4px; line-height: 200%;&quot;&gt;&lt;span style=&quot;background-color: initial;&quot;&gt;+&amp;nbsp;&lt;/span&gt;&lt;span style=&quot;background-color: initial;&quot;&gt;(&lt;/span&gt;&lt;span style=&quot;background-color: initial;&quot;&gt;iTransformers[4]&lt;/span&gt;&lt;span style=&quot;background-color: initial;&quot;&gt;)&lt;/span&gt;&lt;span style=&quot;background-color: initial;&quot;&gt;ConstantTransformer&lt;/span&gt;&lt;span style=&quot;background-color: initial;&quot;&gt;.transform(&lt;/span&gt;&lt;span style=&quot;background-color: initial;&quot;&gt;java.lang.ProcessImpl&lt;/span&gt;&lt;span style=&quot;background-color: initial;&quot;&gt;):&amp;nbsp;&lt;/span&gt;&lt;span style=&quot;background-color: initial;&quot;&gt;iConstant:&amp;nbsp;1 #使结构完整&lt;/span&gt;&lt;/p&gt;&lt;p style=&quot;margin: 0px 0px 0px 4px; line-height: 200%;&quot;&gt;&lt;br&gt;&lt;/p&gt;&lt;p style=&quot;margin: 0px 0px 0px 4px; line-height: 200%;&quot;&gt;&lt;br&gt;&lt;/p&gt;" style="verticalAlign=top;align=left;overflow=fill;html=1;whiteSpace=wrap;rounded=0;shadow=0;comic=0;strokeColor=default;strokeWidth=1;fontFamily=Verdana;fontSize=10;fontColor=default;labelBackgroundColor=none;fillColor=default;" vertex="1" parent="1">
          <mxGeometry x="-780" y="370" width="630" height="250" as="geometry" />
        </mxCell>
        <mxCell id="mktTTxAk-hrFoKmWI4L3-1" value="&lt;p style=&quot;text-align: center; margin: 4px 0px 0px; line-height: 200%;&quot;&gt;&lt;b&gt;org.apache.commons.collections.functors.ChainedTransformer&lt;/b&gt;&lt;br&gt;&lt;/p&gt;&lt;hr size=&quot;1&quot; style=&quot;border-style: solid; line-height: 200%;&quot;&gt;&lt;div style=&quot;height: 2px; line-height: 200%;&quot;&gt;&lt;p style=&quot;margin: 0px 0px 0px 4px; line-height: 20px;&quot;&gt;+ iTransformers[0]&lt;span style=&quot;background-color: initial;&quot;&gt;:&lt;/span&gt;&lt;span style=&quot;background-color: initial;&quot;&gt;&amp;nbsp;&lt;/span&gt;&lt;/p&gt;&lt;p style=&quot;margin: 0px 0px 0px 4px; line-height: 20px;&quot;&gt;+ iTransformers[1]&lt;span style=&quot;background-color: initial;&quot;&gt;:&lt;/span&gt;&lt;span style=&quot;background-color: initial;&quot;&gt;&amp;nbsp;&lt;/span&gt;&lt;span style=&quot;background-color: initial;&quot;&gt;&lt;br&gt;&lt;/span&gt;&lt;/p&gt;&lt;p style=&quot;margin: 0px 0px 0px 4px; line-height: 20px;&quot;&gt;+ iTransformers[2]&lt;span style=&quot;background-color: initial;&quot;&gt;:&lt;/span&gt;&lt;span style=&quot;background-color: initial;&quot;&gt;&amp;nbsp;&lt;/span&gt;&lt;span style=&quot;background-color: initial;&quot;&gt;&lt;br&gt;&lt;/span&gt;&lt;/p&gt;&lt;p style=&quot;margin: 0px 0px 0px 4px; line-height: 20px;&quot;&gt;+ iTransformers[3]&lt;span style=&quot;background-color: initial;&quot;&gt;:&lt;/span&gt;&lt;span style=&quot;background-color: initial;&quot;&gt;&amp;nbsp;&lt;/span&gt;&lt;span style=&quot;background-color: initial;&quot;&gt;&lt;br&gt;&lt;/span&gt;&lt;/p&gt;&lt;p style=&quot;margin: 0px 0px 0px 4px; line-height: 20px;&quot;&gt;+ iTransformers[4]&lt;span style=&quot;background-color: initial;&quot;&gt;:&lt;/span&gt;&lt;span style=&quot;background-color: initial;&quot;&gt;&amp;nbsp;&lt;/span&gt;&lt;/p&gt;&lt;/div&gt;" style="verticalAlign=top;align=left;overflow=fill;html=1;whiteSpace=wrap;rounded=0;shadow=1;comic=0;strokeColor=default;strokeWidth=1;fontFamily=Verdana;fontSize=10;fontColor=default;labelBackgroundColor=none;fillColor=default;" vertex="1" parent="1">
          <mxGeometry x="-365" y="86.25" width="370" height="140" as="geometry" />
        </mxCell>
        <mxCell id="LEm1orPJFQ5sl4Bg7dyX-1" value="反序列化开始" style="label;fontStyle=0;strokeColor=none;fillColor=none;align=left;verticalAlign=top;overflow=hidden;spacingLeft=28;spacingRight=4;rotatable=0;points=[[0,0.5],[1,0.5]];portConstraint=eastwest;imageWidth=16;imageHeight=16;whiteSpace=wrap;html=1;image=img/clipart/Gear_128x128.png;rounded=0;shadow=0;comic=0;strokeWidth=1;fontFamily=Verdana;fontSize=10;fontColor=default;labelBackgroundColor=none;" vertex="1" parent="1">
          <mxGeometry x="-700" y="-58" width="120" height="26" as="geometry" />
        </mxCell>
        <mxCell id="dwE6JiTpVuSONAQaIM0f-2" value="&lt;p style=&quot;text-align: center; margin: 4px 0px 0px; line-height: 200%;&quot;&gt;&lt;b&gt;org.apache.commons.collections.keyvalue.TiedMapEntry&lt;/b&gt;&lt;br&gt;&lt;/p&gt;&lt;hr size=&quot;1&quot; style=&quot;text-align: center; border-style: solid; line-height: 200%;&quot;&gt;&lt;p style=&quot;margin: 0px 0px 0px 4px; line-height: 20px;&quot;&gt;+ key&lt;span style=&quot;background-color: initial;&quot;&gt;:&lt;/span&gt;&lt;span style=&quot;background-color: initial;&quot;&gt;&amp;nbsp;&lt;/span&gt;&lt;span style=&quot;background-color: initial;&quot;&gt;&quot;foo&quot;&lt;/span&gt;&lt;/p&gt;&lt;p style=&quot;margin: 0px 0px 0px 4px; line-height: 20px;&quot;&gt;+ value&lt;span style=&quot;background-color: initial;&quot;&gt;:&lt;/span&gt;&lt;span style=&quot;background-color: initial;&quot;&gt;&amp;nbsp;&lt;/span&gt;&lt;span style=&quot;background-color: initial;&quot;&gt;1&lt;/span&gt;&lt;/p&gt;&lt;p style=&quot;margin: 0px 0px 0px 4px; line-height: 20px;&quot;&gt;&lt;span style=&quot;background-color: initial;&quot;&gt;+&amp;nbsp;&lt;/span&gt;&lt;span style=&quot;background-color: initial;&quot;&gt;map:&amp;nbsp;&lt;/span&gt;&lt;span style=&quot;background-color: initial;&quot;&gt;LazyMap{&quot;foo&quot; : 1}&lt;/span&gt;&lt;/p&gt;&lt;hr size=&quot;1&quot; style=&quot;border-style: solid; line-height: 200%;&quot;&gt;&lt;p style=&quot;margin: 0px 0px 0px 4px; line-height: 200%;&quot;&gt;+ TiedMapEntry.getValue()&lt;br&gt;&lt;/p&gt;&lt;p style=&quot;margin: 0px 0px 0px 4px; line-height: 200%;&quot;&gt;+&amp;nbsp;LazyMap.get(&quot;foo&quot;)&lt;/p&gt;" style="verticalAlign=top;align=left;overflow=fill;html=1;whiteSpace=wrap;rounded=0;shadow=0;comic=0;strokeColor=default;strokeWidth=1;fontFamily=Verdana;fontSize=10;fontColor=default;labelBackgroundColor=none;fillColor=default;" vertex="1" parent="1">
          <mxGeometry x="-780" y="80" width="330" height="152.5" as="geometry" />
        </mxCell>
        <mxCell id="FstUkmyEx16WZKglAAQG-4" value="" style="html=1;verticalAlign=bottom;endArrow=open;dashed=1;endSize=8;curved=1;rounded=0;edgeStyle=orthogonalEdgeStyle;exitX=0;exitY=0.25;exitDx=0;exitDy=0;entryX=0.5;entryY=0;entryDx=0;entryDy=0;" edge="1" parent="1" source="dwE6JiTpVuSONAQaIM0f-1" target="dwE6JiTpVuSONAQaIM0f-2">
          <mxGeometry relative="1" as="geometry">
            <mxPoint x="-170" y="-30" as="sourcePoint" />
            <mxPoint x="-250" y="-30" as="targetPoint" />
            <Array as="points">
              <mxPoint x="-810" y="-82" />
              <mxPoint x="-810" y="55" />
              <mxPoint x="-615" y="55" />
            </Array>
          </mxGeometry>
        </mxCell>
        <mxCell id="FstUkmyEx16WZKglAAQG-5" value="" style="html=1;verticalAlign=bottom;endArrow=open;dashed=1;endSize=8;curved=1;rounded=0;edgeStyle=orthogonalEdgeStyle;exitX=0;exitY=0.5;exitDx=0;exitDy=0;entryX=0.5;entryY=0;entryDx=0;entryDy=0;" edge="1" parent="1" source="dwE6JiTpVuSONAQaIM0f-2" target="dwE6JiTpVuSONAQaIM0f-3">
          <mxGeometry relative="1" as="geometry">
            <mxPoint x="-630" y="280" as="sourcePoint" />
            <mxPoint x="-710" y="280" as="targetPoint" />
          </mxGeometry>
        </mxCell>
        <mxCell id="FstUkmyEx16WZKglAAQG-6" value="" style="html=1;verticalAlign=bottom;endArrow=open;dashed=1;endSize=8;curved=1;rounded=0;exitX=0;exitY=0.25;exitDx=0;exitDy=0;edgeStyle=orthogonalEdgeStyle;entryX=0.5;entryY=0;entryDx=0;entryDy=0;" edge="1" parent="1" source="dwE6JiTpVuSONAQaIM0f-3" target="mktTTxAk-hrFoKmWI4L3-1">
          <mxGeometry relative="1" as="geometry">
            <mxPoint x="-360" y="299.29" as="sourcePoint" />
            <mxPoint x="-440" y="299.29" as="targetPoint" />
            <Array as="points">
              <mxPoint x="-790" y="433" />
              <mxPoint x="-790" y="310" />
              <mxPoint x="-390" y="310" />
              <mxPoint x="-390" y="40" />
              <mxPoint x="-180" y="40" />
            </Array>
          </mxGeometry>
        </mxCell>
        <mxCell id="3tNOyQdfrkRuxX1c0H60-3" value="1" style="endArrow=block;endFill=1;html=1;edgeStyle=orthogonalEdgeStyle;align=left;verticalAlign=top;rounded=0;exitX=0.25;exitY=1;exitDx=0;exitDy=0;entryX=0;entryY=0.75;entryDx=0;entryDy=0;" edge="1" parent="1" source="dwE6JiTpVuSONAQaIM0f-1" target="dwE6JiTpVuSONAQaIM0f-2">
          <mxGeometry x="-1" relative="1" as="geometry">
            <mxPoint x="-700" y="40" as="sourcePoint" />
            <mxPoint x="-540" y="40" as="targetPoint" />
            <Array as="points">
              <mxPoint x="-698" y="45" />
              <mxPoint x="-800" y="45" />
              <mxPoint x="-800" y="194" />
            </Array>
          </mxGeometry>
        </mxCell>
        <mxCell id="3tNOyQdfrkRuxX1c0H60-5" value="2" style="endArrow=block;endFill=1;html=1;edgeStyle=orthogonalEdgeStyle;align=left;verticalAlign=top;rounded=0;exitX=0.25;exitY=1;exitDx=0;exitDy=0;entryX=-0.006;entryY=0.393;entryDx=0;entryDy=0;entryPerimeter=0;" edge="1" parent="1" source="dwE6JiTpVuSONAQaIM0f-2" target="dwE6JiTpVuSONAQaIM0f-3">
          <mxGeometry x="-1" relative="1" as="geometry">
            <mxPoint x="-600" y="270" as="sourcePoint" />
            <mxPoint x="-440" y="270" as="targetPoint" />
            <Array as="points">
              <mxPoint x="-697" y="251" />
              <mxPoint x="-800" y="251" />
              <mxPoint x="-800" y="468" />
            </Array>
          </mxGeometry>
        </mxCell>
        <mxCell id="3tNOyQdfrkRuxX1c0H60-9" value="" style="html=1;verticalAlign=bottom;endArrow=open;dashed=1;endSize=8;curved=0;rounded=0;exitX=1;exitY=0.25;exitDx=0;exitDy=0;entryX=0;entryY=0;entryDx=0;entryDy=0;" edge="1" parent="1" source="mktTTxAk-hrFoKmWI4L3-1" target="9aW4lmUeaGRTLgVxp6b_-3">
          <mxGeometry relative="1" as="geometry">
            <mxPoint x="-60" y="-30" as="sourcePoint" />
            <mxPoint x="-140" y="-30" as="targetPoint" />
          </mxGeometry>
        </mxCell>
        <mxCell id="3tNOyQdfrkRuxX1c0H60-10" value="" style="html=1;verticalAlign=bottom;endArrow=open;dashed=1;endSize=8;curved=0;rounded=0;entryX=0;entryY=0;entryDx=0;entryDy=0;" edge="1" parent="1" target="9aW4lmUeaGRTLgVxp6b_-4">
          <mxGeometry relative="1" as="geometry">
            <mxPoint x="5" y="143" as="sourcePoint" />
            <mxPoint x="-120" y="-20" as="targetPoint" />
          </mxGeometry>
        </mxCell>
        <mxCell id="3tNOyQdfrkRuxX1c0H60-11" value="" style="html=1;verticalAlign=bottom;endArrow=open;dashed=1;endSize=8;curved=0;rounded=0;exitX=1;exitY=0.571;exitDx=0;exitDy=0;entryX=0;entryY=0;entryDx=0;entryDy=0;exitPerimeter=0;" edge="1" parent="1" source="mktTTxAk-hrFoKmWI4L3-1" target="9aW4lmUeaGRTLgVxp6b_-5">
          <mxGeometry relative="1" as="geometry">
            <mxPoint as="sourcePoint" />
            <mxPoint x="-80" as="targetPoint" />
          </mxGeometry>
        </mxCell>
        <mxCell id="3tNOyQdfrkRuxX1c0H60-12" value="" style="html=1;verticalAlign=bottom;endArrow=open;dashed=1;endSize=8;curved=0;rounded=0;exitX=1;exitY=0.75;exitDx=0;exitDy=0;entryX=0;entryY=0;entryDx=0;entryDy=0;" edge="1" parent="1" source="mktTTxAk-hrFoKmWI4L3-1" target="9aW4lmUeaGRTLgVxp6b_-6">
          <mxGeometry relative="1" as="geometry">
            <mxPoint y="290" as="sourcePoint" />
            <mxPoint x="-80" y="290" as="targetPoint" />
          </mxGeometry>
        </mxCell>
        <mxCell id="3tNOyQdfrkRuxX1c0H60-13" value="" style="html=1;verticalAlign=bottom;endArrow=open;dashed=1;endSize=8;curved=0;rounded=0;exitX=1;exitY=1;exitDx=0;exitDy=0;entryX=0;entryY=0;entryDx=0;entryDy=0;" edge="1" parent="1" source="mktTTxAk-hrFoKmWI4L3-1" target="9aW4lmUeaGRTLgVxp6b_-7">
          <mxGeometry relative="1" as="geometry">
            <mxPoint x="10" y="310" as="sourcePoint" />
            <mxPoint x="-70" y="310" as="targetPoint" />
          </mxGeometry>
        </mxCell>
        <mxCell id="3tNOyQdfrkRuxX1c0H60-20" style="text;strokeColor=none;fillColor=none;align=left;verticalAlign=top;spacingLeft=4;spacingRight=4;overflow=hidden;rotatable=0;points=[[0,0.5],[1,0.5]];portConstraint=eastwest;whiteSpace=wrap;html=1;" vertex="1" parent="1">
          <mxGeometry x="-190" y="-140" width="160" height="26" as="geometry" />
        </mxCell>
        <mxCell id="z_9K46G2-tJE0C9WnCcw-1" value="命令执行结束" style="label;fontStyle=0;strokeColor=none;fillColor=none;align=left;verticalAlign=top;overflow=hidden;spacingLeft=28;spacingRight=4;rotatable=0;points=[[0,0.5],[1,0.5]];portConstraint=eastwest;imageWidth=16;imageHeight=16;whiteSpace=wrap;html=1;image=img/clipart/Gear_128x128.png;rounded=0;shadow=0;comic=0;strokeWidth=1;fontFamily=Verdana;fontSize=10;fontColor=default;labelBackgroundColor=none;" vertex="1" parent="1">
          <mxGeometry x="-460" y="572" width="120" height="26" as="geometry" />
        </mxCell>
      </root>
    </mxGraphModel>
  </diagram>
</mxfile>
